<?xml version="1.0" encoding="UTF-8"?>
<!DOCTYPE svg PUBLIC "-//W3C//DTD SVG 1.0//EN" "http://www.w3.org/TR/2001/REC-SVG-20010904/DTD/svg10.dtd">

<svg xmlns="http://www.w3.org/2000/svg" xml:space="preserve" width="700px" height="600px" version="1.0" style="shape-rendering:geometricPrecision; text-rendering:geometricPrecision; image-rendering:optimizeQuality; fill-rule:evenodd; clip-rule:evenodd"
viewBox="0 0 40055000 34332000"
 xmlns:xlink="http://www.w3.org/1999/xlink">
 <defs>
  <style type="text/css">
   <![CDATA[
    .fil0 {fill:gray}
   ]]>
  </style>
 </defs>
 <g id="Layer_x0020_1">
  <metadata id="CorelCorpID_0Corel-Layer"/>
  <path class="fil0" d="M0 0l40055000 0 0 34332000 -40055000 0 0 -34332000zm2861000 401000c1359000,0 2460000,1101000 2460000,2460000 0,1359000 -1101000,2460000 -2460000,2460000 -1359000,0 -2460000,-1101000 -2460000,-2460000 0,-1359000 1101000,-2460000 2460000,-2460000zm5722000 0c1359000,0 2461000,1101000 2461000,2460000 0,1359000 -1102000,2460000 -2461000,2460000 -1359000,0 -2460000,-1101000 -2460000,-2460000 0,-1359000 1101000,-2460000 2460000,-2460000zm5722000 0c1359000,0 2461000,1101000 2461000,2460000 0,1359000 -1102000,2460000 -2461000,2460000 -1359000,0 -2460000,-1101000 -2460000,-2460000 0,-1359000 1101000,-2460000 2460000,-2460000zm5722000 0c1359000,0 2461000,1101000 2461000,2460000 0,1359000 -1102000,2460000 -2461000,2460000 -1359000,0 -2460000,-1101000 -2460000,-2460000 0,-1359000 1101000,-2460000 2460000,-2460000zm5723000 0c1358000,0 2460000,1101000 2460000,2460000 0,1359000 -1102000,2460000 -2460000,2460000 -1359000,0 -2461000,-1101000 -2461000,-2460000 0,-1359000 1102000,-2460000 2461000,-2460000zm5722000 0c1359000,0 2460000,1101000 2460000,2460000 0,1359000 -1101000,2460000 -2460000,2460000 -1359000,0 -2461000,-1101000 -2461000,-2460000 0,-1359000 1102000,-2460000 2461000,-2460000zm5722000 0c1359000,0 2460000,1101000 2460000,2460000 0,1359000 -1101000,2460000 -2460000,2460000 -1359000,0 -2461000,-1101000 -2461000,-2460000 0,-1359000 1102000,-2460000 2461000,-2460000zm-28611000 5722000c1359000,0 2461000,1101000 2461000,2460000 0,1359000 -1102000,2461000 -2461000,2461000 -1359000,0 -2460000,-1102000 -2460000,-2461000 0,-1359000 1101000,-2460000 2460000,-2460000zm-20000 5722000c1359000,0 2461000,1101000 2461000,2460000 0,1359000 -1102000,2461000 -2461000,2461000 -1358000,0 -2460000,-1102000 -2460000,-2461000 0,-1359000 1102000,-2460000 2460000,-2460000zm0 5722000c1359000,0 2461000,1101000 2461000,2460000 0,1359000 -1102000,2461000 -2461000,2461000 -1358000,0 -2460000,-1102000 -2460000,-2461000 0,-1359000 1102000,-2460000 2460000,-2460000zm0 5722000c1359000,0 2461000,1101000 2461000,2460000 0,1359000 -1102000,2461000 -2461000,2461000 -1358000,0 -2460000,-1102000 -2460000,-2461000 0,-1359000 1102000,-2460000 2460000,-2460000zm0 5722000c1359000,0 2461000,1102000 2461000,2460000 0,1359000 -1102000,2461000 -2461000,2461000 -1358000,0 -2460000,-1102000 -2460000,-2461000 0,-1358000 1102000,-2460000 2460000,-2460000zm5723000 -11444000c1358000,0 2460000,1101000 2460000,2460000 0,1359000 -1102000,2461000 -2460000,2461000 -1359000,0 -2461000,-1102000 -2461000,-2461000 0,-1359000 1102000,-2460000 2461000,-2460000zm5741000 0c1359000,0 2461000,1101000 2461000,2460000 0,1359000 -1102000,2461000 -2461000,2461000 -1359000,0 -2460000,-1102000 -2460000,-2461000 0,-1359000 1101000,-2460000 2460000,-2460000zm5742000 0c1359000,0 2461000,1101000 2461000,2460000 0,1359000 -1102000,2461000 -2461000,2461000 -1359000,0 -2460000,-1102000 -2460000,-2461000 0,-1359000 1101000,-2460000 2460000,-2460000zm5703000 0c1358000,0 2460000,1101000 2460000,2460000 0,1359000 -1102000,2461000 -2460000,2461000 -1359000,0 -2461000,-1102000 -2461000,-2461000 0,-1359000 1102000,-2460000 2461000,-2460000zm5702000 0c1359000,0 2460000,1101000 2460000,2460000 0,1359000 -1101000,2461000 -2460000,2461000 -1359000,0 -2460000,-1102000 -2460000,-2461000 0,-1359000 1101000,-2460000 2460000,-2460000zm20000 5722000c1359000,0 2460000,1102000 2460000,2460000 0,1359000 -1101000,2461000 -2460000,2461000 -1359000,0 -2461000,-1102000 -2461000,-2461000 0,-1358000 1102000,-2460000 2461000,-2460000zm19000 5722000c1359000,0 2461000,1102000 2461000,2461000 0,1358000 -1102000,2460000 -2461000,2460000 -1359000,0 -2460000,-1102000 -2460000,-2460000 0,-1359000 1101000,-2461000 2460000,-2461000zm-22908000 -5722000c1359000,0 2461000,1102000 2461000,2460000 0,1359000 -1102000,2461000 -2461000,2461000 -1359000,0 -2460000,-1102000 -2460000,-2461000 0,-1358000 1101000,-2460000 2460000,-2460000zm20000 5722000c1359000,0 2460000,1102000 2460000,2461000 0,1358000 -1101000,2460000 -2460000,2460000 -1359000,0 -2460000,-1102000 -2460000,-2460000 0,-1359000 1101000,-2461000 2460000,-2461000zm5702000 0c1359000,0 2461000,1102000 2461000,2461000 0,1358000 -1102000,2460000 -2461000,2460000 -1359000,0 -2460000,-1102000 -2460000,-2460000 0,-1359000 1101000,-2461000 2460000,-2461000zm5703000 0c1359000,0 2460000,1102000 2460000,2461000 0,1358000 -1101000,2460000 -2460000,2460000 -1359000,0 -2461000,-1102000 -2461000,-2460000 0,-1359000 1102000,-2461000 2461000,-2461000zm5742000 0c1358000,0 2460000,1102000 2460000,2461000 0,1358000 -1102000,2460000 -2460000,2460000 -1359000,0 -2461000,-1102000 -2461000,-2460000 0,-1359000 1102000,-2461000 2461000,-2461000zm0 -5722000c1358000,0 2460000,1102000 2460000,2460000 0,1359000 -1102000,2461000 -2460000,2461000 -1359000,0 -2461000,-1102000 -2461000,-2461000 0,-1358000 1102000,-2460000 2461000,-2460000zm-5723000 0c1359000,0 2461000,1102000 2461000,2460000 0,1359000 -1102000,2461000 -2461000,2461000 -1358000,0 -2460000,-1102000 -2460000,-2461000 0,-1358000 1102000,-2460000 2460000,-2460000zm-5722000 0c1359000,0 2461000,1102000 2461000,2460000 0,1359000 -1102000,2461000 -2461000,2461000 -1359000,0 -2460000,-1102000 -2460000,-2461000 0,-1358000 1101000,-2460000 2460000,-2460000zm-5722000 -17166000c1359000,0 2461000,1101000 2461000,2460000 0,1359000 -1102000,2461000 -2461000,2461000 -1359000,0 -2460000,-1102000 -2460000,-2461000 0,-1359000 1101000,-2460000 2460000,-2460000zm-19000 5722000c1358000,0 2460000,1101000 2460000,2460000 0,1359000 -1102000,2461000 -2460000,2461000 -1359000,0 -2461000,-1102000 -2461000,-2461000 0,-1359000 1102000,-2460000 2461000,-2460000zm5741000 -5722000c1359000,0 2461000,1101000 2461000,2460000 0,1359000 -1102000,2461000 -2461000,2461000 -1359000,0 -2460000,-1102000 -2460000,-2461000 0,-1359000 1101000,-2460000 2460000,-2460000zm-19000 5722000c1359000,0 2460000,1101000 2460000,2460000 0,1359000 -1101000,2461000 -2460000,2461000 -1359000,0 -2461000,-1102000 -2461000,-2461000 0,-1359000 1102000,-2460000 2461000,-2460000zm5742000 -5722000c1358000,0 2460000,1101000 2460000,2460000 0,1359000 -1102000,2461000 -2460000,2461000 -1359000,0 -2461000,-1102000 -2461000,-2461000 0,-1359000 1102000,-2460000 2461000,-2460000zm-20000 5722000c1359000,0 2460000,1101000 2460000,2460000 0,1359000 -1101000,2461000 -2460000,2461000 -1359000,0 -2461000,-1102000 -2461000,-2461000 0,-1359000 1102000,-2460000 2461000,-2460000zm5742000 -5722000c1359000,0 2460000,1101000 2460000,2460000 0,1359000 -1101000,2461000 -2460000,2461000 -1359000,0 -2461000,-1102000 -2461000,-2461000 0,-1359000 1102000,-2460000 2461000,-2460000zm-20000 5722000c1359000,0 2460000,1101000 2460000,2460000 0,1359000 -1101000,2461000 -2460000,2461000 -1359000,0 -2461000,-1102000 -2461000,-2461000 0,-1359000 1102000,-2460000 2461000,-2460000zm5742000 -5722000c1359000,0 2460000,1101000 2460000,2460000 0,1359000 -1101000,2461000 -2460000,2461000 -1359000,0 -2461000,-1102000 -2461000,-2461000 0,-1359000 1102000,-2460000 2461000,-2460000zm-20000 5722000c1359000,0 2460000,1101000 2460000,2460000 0,1359000 -1101000,2461000 -2460000,2461000 -1359000,0 -2460000,-1102000 -2460000,-2461000 0,-1359000 1101000,-2460000 2460000,-2460000zm-34313000 -5722000c1359000,0 2460000,1101000 2460000,2460000 0,1359000 -1101000,2461000 -2460000,2461000 -1359000,0 -2460000,-1102000 -2460000,-2461000 0,-1359000 1101000,-2460000 2460000,-2460000zm0 5722000c1359000,0 2460000,1101000 2460000,2460000 0,1359000 -1101000,2461000 -2460000,2461000 -1359000,0 -2460000,-1102000 -2460000,-2461000 0,-1359000 1101000,-2460000 2460000,-2460000zm0 5722000c1359000,0 2460000,1101000 2460000,2460000 0,1359000 -1101000,2461000 -2460000,2461000 -1359000,0 -2460000,-1102000 -2460000,-2461000 0,-1359000 1101000,-2460000 2460000,-2460000zm0 5722000c1359000,0 2460000,1102000 2460000,2461000 0,1358000 -1101000,2460000 -2460000,2460000 -1359000,0 -2460000,-1102000 -2460000,-2460000 0,-1359000 1101000,-2461000 2460000,-2461000zm0 5722000c1359000,0 2460000,1102000 2460000,2461000 0,1359000 -1101000,2460000 -2460000,2460000 -1359000,0 -2460000,-1101000 -2460000,-2460000 0,-1359000 1101000,-2461000 2460000,-2461000z"/>
 </g>
</svg>
